# AST/ASF file generated using VICON BodyLanguage
# -----------------------------------------------
:version 1.10
:name VICON
:units
  mass 1.0
  length 0.45
  angle deg
:documentation
   .ast/.asf automatically generated from VICON data using
   VICON BodyBuilder and BodyLanguage model FoxedUp or BRILLIANT.MOD
:root
   order TX TY TZ RX RY RZ
   axis XYZ
   position 0 0 0  
   orientation 0 0 0 
:bonedata
  begin
     id 1 
     name lhipjoint
     direction 0.606768 -0.715223 0.346827 
     length 2.41543 
     axis 0 0 0  XYZ
  end
  begin
     id 2 
     name lfemur
     direction 0.34202 -0.939693 0  
     length 7.2778  
     axis 0 0 20  XYZ
    dof rx ry rz
    limits (-160.0 20.0)
           (-70.0 70.0)
           (-60.0 70.0)
  end
  begin
     id 3 
     name ltibia
     direction 0.34202 -0.939693 0   
     length 7.61811   
     axis 0 0 20   XYZ
    dof rx
    limits (-10.0 170.0)
  end
  begin
     id 4 
     name lfoot
     direction 0.0823924 -0.226371 0.97055   
     length 2.33618   
     axis -90 7.62852e-016 20   XYZ
    dof rx rz
    limits (-45.0 90.0)
           (-70.0 20.0)
  end
  begin
     id 5 
     name ltoes
     direction 1.53554e-011 -4.21934e-011 1   
     length 1.17015   
     axis -90 7.62852e-016 20   XYZ
    dof rx
    limits (-90.0 20.0)
  end
  begin
     id 6 
     name rhipjoint
     direction -0.6077 -0.714582 0.346516   
     length 2.4176  
     axis 0 0 0  XYZ 
  end
  begin
     id 7 
     name rfemur
     direction -0.34202 -0.939693 0   
     length 7.28127   
     axis 0 0 -20   XYZ
    dof rx ry rz
    limits (-160.0 20.0)
           (-70.0 70.0)
           (-70.0 60.0)
  end
  begin
     id 8 
     name rtibia
     direction -0.34202 -0.939693 0   
     length 7.77648   
     axis 0 0 -20   XYZ
    dof rx
    limits (-10.0 170.0)
 end
 begin
     id 9 
     name rfoot
     direction -0.0809463 -0.222398 0.97159   
     length 2.37533  
     axis -90 -7.62852e-016 -20   XYZ
    dof rx rz
    limits (-45.0 90.0)
           (-20.0 70.0)
  end
  begin
     id 10 
     name rtoes
     direction -1.53568e-011 -4.21714e-011 1   
     length 1.18972   
     axis -90 -7.62852e-016 -20   XYZ
    dof rx
    limits (-90.0 20.0)
  end
  begin
     id 11 
     name lowerback
     direction 0.010968 0.991932 -0.126297   
     length 2.21698   
     axis 0 0 0   XYZ
    dof rx ry rz
    limits (-20.0 45.0)
           (-30.0 30.0)
           (-30.0 30.0)
  end
  begin
     id 12 
     name upperback
     direction 0.0167007 0.997503 -0.0686276   
     length 2.22371   
     axis 0 0 0   XYZ
    dof rx ry rz
    limits (-20.0 45.0)
           (-30.0 30.0)
           (-30.0 30.0)
  end
  begin
     id 13 
     name thorax
     direction 0.0111721 0.999885 -0.0102878   
     length 2.25242   
     axis 0 0 0   XYZ
    dof rx ry rz
    limits (-20.0 45.0)
           (-30.0 30.0)
           (-30.0 30.0)
  end
  begin
     id 14 
     name lowerneck
     direction -0.0120265 0.990428 0.137508   
     length 1.57674   
     axis 0 0 0   XYZ
    dof rx ry rz
    limits (-20.0 45.0)
           (-30.0 30.0)
           (-30.0 30.0)
  end
  begin
     id 15 
     name upperneck
     direction 0.0175669 0.998907 0.0433089   
     length 1.5618   
     axis 0 0 0   XYZ
    dof rx ry rz
    limits (-20.0 45.0)
           (-30.0 30.0)
           (-30.0 30.0)
  end
  begin
     id 16
     name head
     direction 0.00754609 0.99997 0.00185367  
     length 1.60579  
     axis 0 0 0   XYZ
    dof rx ry rz
    limits (-20.0 45.0)
           (-30.0 30.0)
           (-30.0 30.0)
  end
  begin
     id 17 
     name lclavicle
     direction 0.885866 0.429166 -0.176231  
     length 3.44967  
     axis 0 0 0   XYZ
    dof ry rz
    limits (-20.0 10.0)
           (0.0 20.0)
  end
  begin
     id 18 
     name lhumerus
     direction 1 -4.48973e-011 -1.90255e-027   
     length 5.20607   
     axis 180 -30 -90   XYZ
    dof rx ry rz
    limits (-60.0 90.0)
           (-90.0 90.0)
           (-90.0 90.0)
  end
  begin
     id 19
     name lradius
     direction 1 -4.48956e-011 9.87925e-027   
     length 3.39961   
     axis 180 -30 -90   XYZ
    dof rx
    limits (-10.0 170.0)
  end
  begin
     id 20
     name lwrist
     direction 1 -4.48985e-011 1.73247e-026   
     length 1.6998   
     axis -9.60847e-015 90 90   XYZ
    dof ry
    limits (-180.0 0.0)
 end
  begin
     id 21 
     name lhand
     direction 1 -4.48798e-011 3.46119e-026   
     length 0.519693   
     axis -2.21073e-014 90 90   XYZ
    dof rx rz
    limits (-90.0 90.0)
           (-45.0 45.0)
  end
  begin
     id 22 
     name lfingers
     direction 1 -4.48938e-011 6.92797e-026   
     length 0.41899   
     axis -4.42155e-014 90 90   XYZ
    dof rx
    limits (0.0 90.0)
  end
  begin
     id 23
     name lthumb
     direction 0.707107 -6.34952e-011 0.707107   
     length 0.601588   
     axis -90 45 6.0103e-014   XYZ
    dof rx rz
    limits (-45.0 45.0)
           (-45.0 45.0)
  end
  begin
     id 24 
     name rclavicle
     direction -0.866736 0.456792 -0.200276   
     length 3.45032  
     axis 0 0 0   XYZ 
    dof ry rz
    limits (-10.0 20.0)
           (-20.0 0.0)
  end
  begin
     id 25 
     name rhumerus
     direction -1 -4.4897e-011 8.65094e-028  
     length 5.32214   
     axis 180 30 90   XYZ
    dof rx ry rz
    limits (-90.0 60.0)
           (-90.0 90.0)
           (-90.0 90.0)
  end
  begin
     id 26 
     name rradius
     direction -1 -4.48987e-011 1.08427e-026   
     length 3.51208   
     axis 180 30 90   XYZ
    dof rx
    limits (-10.0 170.0)
  end
  begin
     id 27 
     name rwrist
     direction -1 -4.48961e-011 1.73222e-026   
     length 1.75604   
     axis -9.60847e-015 -90 -90   XYZ
    dof ry
    limits (-180.0 0.0)
  end
  begin
     id 28
     name rhand
     direction -1 -4.48895e-011 3.46314e-026   
     length 0.586681   
     axis -2.21073e-014 -90 -90   XYZ
    dof rx rz
    limits (-90.0 90.0)
           (-45.0 45.0)
  end
  begin
     id 29
     name rfingers
     direction -1 -4.48968e-011 6.92916e-026   
     length 0.472997   
     axis -4.42155e-014 -90 -90   XYZ
    dof rx
    limits (0.0 90.0)
  end
  begin
     id 30
     name rthumb
     direction -0.707107 -6.34848e-011 0.707107   
     length 0.679133   
     axis -90 -45 -6.0103e-014   XYZ
    dof rx rz
    limits (-45.0 45.0)
           (-45.0 45.0)
  end
:hierarchy
  begin
    root lhipjoint rhipjoint lowerback
    lhipjoint lfemur
    lfemur ltibia
    ltibia lfoot
    lfoot ltoes
    rhipjoint rfemur
    rfemur rtibia
    rtibia rfoot
    rfoot rtoes
    lowerback upperback
    upperback thorax
    thorax lowerneck lclavicle rclavicle
    lowerneck upperneck
    upperneck head
    lclavicle lhumerus
    lhumerus lradius
    lradius lwrist
    lwrist lhand lthumb
    lhand lfingers
    rclavicle rhumerus
    rhumerus rradius
    rradius rwrist
    rwrist rhand rthumb
    rhand rfingers
  end

#!OML:ASF H:\Dans Jumps\Project 1\Capture day 1\Session 1\subject.ASF
:FULLY-SPECIFIED
:DEGREES
21
root 0.553433 17.5466 -13.9286 6.18872 -1.97836 -1.56834
lowerback -3.38662 -0.668731 0.137466
upperback 2.18187 -0.977232 1.97506
thorax 4.18245 -0.512631 1.89368
lowerneck -14.3389 0.264893 -2.4063
upperneck 21.7873 0.824098 0.529723
head 9.20406 0.240869 0.683758
rclavicle 8.24956e-015 2.38542e-015
rhumerus -25.747 -14.8718 -78.2499
rradius 24.5515
rwrist 31.9579
rhand -19.3221 -26.2085
rfingers 7.12502
rthumb 6.99418 -56.073
lclavicle 8.24956e-015 2.38542e-015
lhumerus -22.519 -3.29678 87.9638
lradius 19.7046
lwrist 4.03501
lhand -23.4755 -3.20098
lfingers 7.12502
lthumb 2.9839 26.7579
rfemur -11.5807 -3.78562 20.3809
rtibia 20.3469
rfoot -13.9036 -1.11636
rtoes 13.7207
lfemur -10.8793 7.68538 -17.8063
ltibia 18.2801
lfoot -11.4176 5.91986
ltoes -1.97322
22
root 0.553468 17.5467 -13.9299 6.18697 -1.98036 -1.57182
lowerback -3.38186 -0.671825 0.136745
upperback 2.18457 -0.981204 1.97216
thorax 4.18264 -0.514596 1.89085
lowerneck -14.3449 0.261057 -2.41064
upperneck 21.8343 0.818533 0.536713
head 9.22154 0.238202 0.686504
rclavicle 1.53064e-014 -3.97569e-016
rhumerus -25.7627 -14.9096 -78.2332
rradius 24.5484
rwrist 31.9767
rhand -19.3392 -26.2023
rfingers 7.12502
rthumb 6.97777 -56.0673
lclavicle 1.53064e-014 -3.97569e-016
lhumerus -22.548 -3.28496 87.9834
lradius 19.6978
lwrist 4.01366
lhand -23.458 -3.174
lfingers 7.12502
lthumb 3.00075 26.7846
rfemur -11.5844 -3.78182 20.3855
rtibia 20.3474
rfoot -13.8995 -1.12186
rtoes 13.7046
lfemur -10.8821 7.68333 -17.8018
ltibia 18.2843
lfoot -11.4179 5.92869
ltoes -1.98737
23
root 0.553662 17.5468 -13.931 6.18821 -1.98405 -1.57139
lowerback -3.38187 -0.674857 0.13329
upperback 2.18592 -0.984958 1.96849
thorax 4.18416 -0.516515 1.88873
lowerneck -14.3443 0.257787 -2.41638
upperneck 21.8791 0.814253 0.542156
head 9.23702 0.235872 0.689067
rclavicle 1.2424e-015 1.19271e-014
rhumerus -25.7822 -14.9384 -78.217
rradius 24.5494
rwrist 31.9869
rhand -19.3584 -26.1876
rfingers 7.12502
rthumb 6.95922 -56.0532
lclavicle 1.2424e-015 1.19271e-014
lhumerus -22.5795 -3.27375 88.0044
lradius 19.6937
lwrist 3.99565
lhand -23.4418 -3.14242
lfingers 7.12502
lthumb 3.01641 26.816
rfemur -11.5932 -3.77869 20.3849
rtibia 20.3509
rfoot -13.8965 -1.12509
rtoes 13.6926
lfemur -10.8871 7.68261 -17.8031
ltibia 18.2861
lfoot -11.4153 5.93791
ltoes -2.01064
24
root 0.553971 17.547 -13.932 6.19142 -1.99001 -1.56956
lowerback -3.38704 -0.67663 0.129892
upperback 2.18822 -0.987085 1.96396
thorax 4.18952 -0.517624 1.88575
lowerneck -14.3487 0.255643 -2.41947
upperneck 21.9289 0.811865 0.544286
head 9.25518 0.23423 0.690328
rclavicle -9.93923e-017 -1.82882e-014
rhumerus -25.7986 -14.9742 -78.2
rradius 24.5461
rwrist 31.9996
rhand -19.3806 -26.1665
rfingers 7.12502
rthumb 6.93778 -56.0328
lclavicle -9.93923e-017 -1.82882e-014
lhumerus -22.6077 -3.26402 88.0249
lradius 19.692
lwrist 3.97813
lhand -23.4237 -3.111
lfingers 7.12502
lthumb 3.03387 26.8472
rfemur -11.6049 -3.77389 20.3821
rtibia 20.3571
rfoot -13.8951 -1.12727
rtoes 13.6818
lfemur -10.8931 7.68655 -17.8071
ltibia 18.2865
lfoot -11.4117 5.94414
ltoes -2.03558
25
root 0.55444 17.5471 -13.9328 6.1961 -1.99416 -1.56754
lowerback -3.39461 -0.678646 0.127726
upperback 2.19034 -0.989625 1.9594
thorax 4.19604 -0.518906 1.88199
lowerneck -14.3518 0.253835 -2.4199
upperneck 21.9788 0.810185 0.542546
head 9.27317 0.232711 0.689895
rclavicle -1.07841e-014 3.57812e-015
rhumerus -25.8146 -15.0087 -78.1843
rradius 24.5429
rwrist 32.0065
rhand -19.4025 -26.1474
rfingers 7.12502
rthumb 6.91661 -56.0144
lclavicle -1.07841e-014 3.57812e-015
lhumerus -22.6331 -3.25282 88.0449
lradius 19.6901
lwrist 3.95964
lhand -23.4084 -3.08632
lfingers 7.12502
lthumb 3.0487 26.8716
rfemur -11.6182 -3.7695 20.3786
rtibia 20.3651
rfoot -13.8942 -1.12993
rtoes 13.6757
lfemur -10.9008 7.6931 -17.8122
ltibia 18.286
lfoot -11.4072 5.94582
ltoes -2.07261
26
root 0.555012 17.547 -13.9335 6.19891 -1.99855 -1.56382
lowerback -3.40218 -0.680197 0.124946
upperback 2.19433 -0.991512 1.95398
thorax 4.20448 -0.519881 1.87773
lowerneck -14.3598 0.251718 -2.41975
upperneck 22.0319 0.808482 0.53921
head 9.29321 0.231021 0.688853
rclavicle -8.05078e-015 1.47101e-014
rhumerus -25.8288 -15.0444 -78.1703
rradius 24.5395
rwrist 32.0109
rhand -19.4211 -26.1278
rfingers 7.12502
rthumb 6.8987 -55.9954
lclavicle -8.05078e-015 1.47101e-014
lhumerus -22.6531 -3.24104 88.0632
lradius 19.6877
lwrist 3.94116
lhand -23.3963 -3.08472
lfingers 7.12502
lthumb 3.06036 26.8731
rfemur -11.6292 -3.76342 20.3725
rtibia 20.3741
rfoot -13.894 -1.13307
rtoes 13.6788
lfemur -10.9064 7.70267 -17.8196
ltibia 18.2857
lfoot -11.4024 5.94516
ltoes -2.12637
